<svg width="1440" height="90" viewBox="0 0 1440 90" fill="none" xmlns="http://www.w3.org/2000/svg">
<path fill-rule="evenodd" clip-rule="evenodd" d="M308.711 90H248.711L264.569 74.142C272.379 66.331 285.042 66.331 292.853 74.142L308.711 90ZM374 90H327.422L242.274 4.8526C240.807 3.3849 239.615 1.7459 238.699 0H462.723C461.807 1.746 460.615 3.385 459.147 4.8526L374 90ZM628.707 90H400.45C400.997 85.772 402.894 81.684 406.142 78.436L484.579 0H544.579L623.015 78.436C626.263 81.684 628.161 85.772 628.707 90ZM934.293 90H815.129C810.511 82.314 811.516 72.195 818.142 65.568L860.569 23.1419C868.379 15.3314 881.043 15.3314 888.853 23.1419L931.279 65.568C937.906 72.195 938.91 82.314 934.293 90ZM1389.13 90H963.264L1053.26 0H1299.13L1389.13 90ZM1333.57 0H1440V90H1422.29L1337.14 4.8526C1335.67 3.3849 1334.48 1.7459 1333.57 0ZM896.287 0H1021.14C1021.06 5.0215 1019.11 10.021 1015.28 13.8526L972.853 56.279C965.043 64.089 952.379 64.089 944.569 56.279L902.142 13.8526C898.311 10.021 896.359 5.0215 896.287 0ZM220.132 0L256.122 35.9897C263.933 43.8002 263.933 56.4635 256.122 64.274L230.396 90H0V0H220.132Z" fill="url(#paint0_linear)"/>
<defs>
<linearGradient id="paint0_linear" x1="590.625" y1="142.486" x2="458.877" y2="9.00428" gradientUnits="userSpaceOnUse">
<stop stop-color="#915787" stop-opacity="0.2"/>
<stop offset="1" stop-color="#7A5D9A" stop-opacity="0.1"/>
</linearGradient>
</defs>
</svg>
