<svg width="1440" height="90" fill="none" xmlns="http://www.w3.org/2000/svg"><path fill-rule="evenodd" clip-rule="evenodd" d="M308.711 90h-60l15.858-15.858c7.81-7.811 20.473-7.811 28.284 0L308.711 90zM374 90h-46.578L242.274 4.853A20.007 20.007 0 0 1 238.699 0h224.024a19.982 19.982 0 0 1-3.576 4.853L374 90zm254.707 0H400.45a19.918 19.918 0 0 1 5.692-11.564L484.579 0h60l78.436 78.436A19.912 19.912 0 0 1 628.707 90zm305.586 0H815.129c-4.618-7.686-3.613-17.805 3.013-24.432l42.427-42.426c7.81-7.81 20.474-7.81 28.284 0l42.426 42.426c6.627 6.627 7.631 16.746 3.014 24.432zm454.837 0H963.264l89.996-90h245.87l90 90zm-55.56-90H1440v90h-17.71l-85.15-85.147A19.753 19.753 0 0 1 1333.57 0zM896.287 0h124.853a19.98 19.98 0 0 1-5.86 13.853l-42.427 42.426c-7.81 7.81-20.474 7.81-28.284 0l-42.427-42.426A19.935 19.935 0 0 1 896.287 0zM220.132 0l35.99 35.99c7.811 7.81 7.811 20.474 0 28.284L230.396 90H0V0h220.132z" fill="url(#paint0_linear)"/><defs><linearGradient id="paint0_linear" x1="590.625" y1="142.486" x2="458.877" y2="9.004" gradientUnits="userSpaceOnUse"><stop stop-color="#915787" stop-opacity=".2"/><stop offset="1" stop-color="#7A5D9A" stop-opacity=".1"/></linearGradient></defs></svg>